{"title":"Family Album (2015) REPACK - 720p - DVDRip - x264 - AC3 [DDR]","uid":15104261,"size":3016586913,"categoryP":"video","categoryS":"hd___movies","magnet":"?xt=urn:btih:1e19848c0a79832661be6872918f4bf81aa83bfd&amp;dn=Family+Album+%282015%29+REPACK+-+720p+-+DVDRip+-+x264+-+AC3+%5BDDR%5D&amp;tr=udp%3A%2F%2Ftracker.leechers-paradise.org%3A6969&amp;tr=udp%3A%2F%2Fzer0day.ch%3A1337&amp;tr=udp%3A%2F%2Fopen.demonii.com%3A1337&amp;tr=udp%3A%2F%2Ftracker.coppersurfer.tk%3A6969&amp;tr=udp%3A%2F%2Fexodus.desync.com%3A6969","seeders":1,"leechers":1,"uploader":"SaM","files":13,"time":1466972944,"description":"(A film by Mainak Bhaumik)\r\n\r\nUpscaled DVD Rip - 720p - x264 - No Sub\r\n\r\n2.1 AC3 - MKV - 2.15 GB\r\n\r\n*2015*\r\n\r\n! || |= ®\r\n\r\n\r\nFormat : Matroska\r\nFormat version : Version 2\r\nFile size : 2.75 GiB\r\nDuration : 1h 51mn\r\nOverall bit rate : 3 518 Kbps\r\nEncoded date : UTC 2016-06-25 16:25:06\r\nWriting application : mkvmerge v8.5.2 ('Crosses') 32bit\r\nWriting library : libebml v1.3.3 + libmatroska v1.4.4\r\n\r\nVideo\r\nID : 1\r\nFormat : AVC\r\nFormat/Info : Advanced Video Codec\r\nFormat profile :   \r\nFormat settings, CABAC : Yes\r\nFormat settings, ReFrames : 11 frames\r\nCodec ID : V_MPEG4/ISO/AVC\r\nDuration : 1h 51mn\r\nBit rate : 3 131 Kbps\r\nWidth : 1 280 pixels\r\nHeight : 568 pixels\r\nDisplay aspect ratio : 2.25:1\r\nFrame rate mode : Constant\r\nFrame rate : 25.000 fps\r\nColor space : YUV\r\nChroma subsampling : 4:2:0\r\nBit depth : 8 bits\r\nScan type : Progressive\r\nBits/(Pixel*Frame) : 0.172\r\nStream size : 2.45 GiB (89%)\r\nTitle : Family Album (2015) - 720p - DVDRip - x264 - AC3 [DDR]\r\nWriting library : x264 core 148 r2638 7599210\r\nEncoding settings : cabac=1 / ref=11 / deblock=1:0:0 / analyse=0x3:0x133 / me=umh / subme=9 / psy=1 / psy_rd=1.00:0.00 / mixed_ref=1 / me_range=25 / chroma_me=1 / trellis=2 / 8x8dct=1 / cqm=0 / deadzone=21,11 / fast_pskip=1 / chroma_qp_offset=-2 / threads=12 / lookahead_threads=1 / sliced_threads=0 / nr=0 / decimate=1 / interlaced=0 / bluray_compat=0 / constrained_intra=0 / bframes=3 / b_pyramid=2 / b_adapt=2 / b_bias=0 / direct=3 / weightb=1 / open_gop=0 / weightp=2 / keyint=240 / keyint_min=24 / scenecut=40 / intra_refresh=0 / rc_lookahead=60 / rc=2pass / mbtree=1 / bitrate=3131 / ratetol=1.0 / qcomp=0.60 / qpmin=0 / qpmax=69 / qpstep=4 / cplxblur=20.0 / qblur=0.5 / vbv_maxrate=62500 / vbv_bufsize=78125 / nal_hrd=none / filler=0 / ip_ratio=1.40 / aq=1:1.00\r\nDefault : Yes\r\nForced : No\r\nColor range : Limited\r\nColor primaries : BT.709\r\nTransfer characteristics : BT.709\r\nMatrix coefficients : BT.709\r\n\r\nAudio\r\nID : 2\r\nFormat : AC-3\r\nFormat/Info : Audio Coding 3\r\nMode extension : CM (complete main)\r\nFormat settings, Endianness : Big\r\nCodec ID : A_AC3\r\nDuration : 1h 51mn\r\nBit rate mode : Constant\r\nBit rate : 384 Kbps\r\nChannel(s) : 2 channels\r\nChannel positions : Front: L R\r\nSampling rate : 48.0 KHz\r\nFrame rate : 31.250 fps (1536 spf)\r\nCompression mode : Lossy\r\nStream size : 307 MiB (11%)\r\nTitle : AC3 [DDR]\r\nLanguage : Bengali\r\nDefault : Yes\r\nForced : No\r\n \nhttps://extraimago.com/image/apkq  \nhttps://extraimago.com/image/apkO  \nhttps://extraimago.com/image/apk1  \nhttps://extraimago.com/image/apkc  \nhttps://extraimago.com/image/apk7  \nhttps://extraimago.com/image/apks  \nhttps://extraimago.com/image/apkn\r\n\r\nplease re-download the torrent file as previous upload was 20 mins short","torrent":{"xt":"urn:btih:1e19848c0a79832661be6872918f4bf81aa83bfd","amp;dn":"Family+Album+%282015%29+REPACK+-+720p+-+DVDRip+-+x264+-+AC3+%5BDDR%5D","amp;tr":["udp%3A%2F%2Ftracker.leechers-paradise.org%3A6969","udp%3A%2F%2Fzer0day.ch%3A1337","udp%3A%2F%2Fopen.demonii.com%3A1337","udp%3A%2F%2Ftracker.coppersurfer.tk%3A6969","udp%3A%2F%2Fexodus.desync.com%3A6969"],"infoHash":"1e19848c0a79832661be6872918f4bf81aa83bfd","infoHashBuffer":{"type":"Buffer","data":[30,25,132,140,10,121,131,38,97,190,104,114,145,143,75,248,26,168,59,253]},"announce":[],"urlList":[]}}